<?xml version="1.0" encoding="UTF-8"?>
<svg id="Layer_1" xmlns="http://www.w3.org/2000/svg" version="1.1" viewBox="0 0 110 89.12">
  <!-- Generator: Adobe Illustrator 29.7.1, SVG Export Plug-In . SVG Version: 2.1.1 Build 8)  -->
  <defs>
    <style>
      .st0 {
        fill: none;
      }

      .st1 {
        fill: #fff;
      }
    </style>
  </defs>
  <rect class="st0" x="17.69" y="-30.56" width="101.31" height="66.38"/>
  <g>
    <g>
      <path class="st1" d="M28.03,42.27c1.7.47,2.55,1.35,2.55,2.64v5.8c0,2.3-1.17,3.45-3.51,3.45h-6.22v-23.15h5.29c2.75,0,4.13,1.4,4.13,4.19v4.45c0,1.33-.74,2.15-2.23,2.45v.16ZM23.94,40.78h1.45c1.18,0,1.77-.56,1.77-1.68v-3.61c0-1.12-.46-1.68-1.39-1.68h-1.84v6.97ZM23.94,51.36h2.32c.82,0,1.23-.33,1.23-1v-5.13c0-1.1-.61-1.64-1.84-1.64h-1.71v7.77Z"/>
      <path class="st1" d="M37.03,54.17v-23.15h7.67v2.81h-4.58v7.03h4.06v2.81h-4.06v7.71h4.58v2.81h-7.67Z"/>
      <path class="st1" d="M56.73,37.24v-2.03c0-.92-.45-1.39-1.35-1.39h-.48c-.88,0-1.32.46-1.32,1.39v3.84c0,.43.09.72.26.87.17.15.45.34.84.58l2.93,1.58c.64.37,1.1.65,1.37.85.27.2.48.45.63.74.15.29.23.84.23,1.66v4.93c0,2.6-1.25,3.9-3.74,3.9h-1.9c-2.47,0-3.71-1.42-3.71-4.26v-1.16h3.1v1.26c0,.9.46,1.35,1.39,1.35h.55c.82,0,1.23-.45,1.23-1.35v-3.93c0-.43-.09-.72-.26-.87-.17-.15-.45-.34-.84-.58l-2.93-1.64c-.65-.34-1.11-.63-1.4-.87-.29-.24-.5-.54-.63-.92-.13-.38-.19-.87-.19-1.47v-4.74c0-2.64,1.24-3.97,3.71-3.97h1.93c2.47,0,3.71,1.32,3.71,3.97v2.26h-3.1Z"/>
      <path class="st1" d="M73.23,54.17v-10.51h-3.81v10.51h-3.1v-23.15h3.1v9.83h3.81v-9.83h3.1v23.15h-3.1Z"/>
      <path class="st1" d="M83.11,54.17v-23.15h7.67v2.81h-4.58v7.03h4.06v2.81h-4.06v7.71h4.58v2.81h-7.67Z"/>
    </g>
    <g>
      <path class="st1" d="M22.14,61.55l1.55,3.84h-1.07l-.21-.56h-1.51l-.21.56h-1.07l1.56-3.84h.98ZM21.65,62.81l-.42,1.13h.84l-.42-1.13Z"/>
      <path class="st1" d="M27.93,61.55h3.38v.96h-1.2v2.89h-.99v-2.89h-1.2v-.96Z"/>
      <path class="st1" d="M36.3,61.55h3.38v.96h-1.2v2.89h-.99v-2.89h-1.2v-.96Z"/>
      <path class="st1" d="M45.15,62.06c.4-.39.88-.59,1.44-.59s1.04.2,1.44.59c.4.39.6.86.6,1.41s-.2,1.02-.6,1.41c-.4.39-.88.59-1.44.59s-1.03-.2-1.44-.59c-.4-.39-.6-.86-.6-1.41s.2-1.02.6-1.41ZM45.85,64.21c.2.2.45.31.74.31s.54-.1.74-.3c.2-.2.3-.45.3-.74s-.1-.54-.3-.74c-.2-.2-.45-.3-.74-.3s-.54.1-.74.31c-.2.2-.31.45-.31.74s.1.54.31.74Z"/>
      <path class="st1" d="M55.69,61.55c.47,0,.83.13,1.07.4.24.26.37.6.37,1.01,0,.28-.06.53-.19.76s-.32.4-.57.52l.83,1.16h-1.18l-.73-1.03h-.5v1.03h-.98v-3.84h1.88ZM54.79,62.45v1.02h.84c.18,0,.32-.05.41-.14s.13-.22.13-.36c0-.35-.18-.52-.54-.52h-.84Z"/>
      <path class="st1" d="M62.36,65.39v-3.84h.84l1.71,2.15v-2.15h.98v3.84h-.83l-1.72-2.14v2.14h-.99Z"/>
      <path class="st1" d="M71.26,61.55h2.95v.96h-1.97v.55h1.62v.89h-1.62v.49h1.97v.95h-2.95v-3.84Z"/>
      <path class="st1" d="M81.18,62.94l.85-1.39h1.16l-1.52,2.43v1.41h-.98v-1.41l-1.52-2.43h1.16l.85,1.39Z"/>
      <path class="st1" d="M88.85,64.24v.02c0,.08.06.17.17.24s.27.11.48.11c.17,0,.29-.02.37-.07.08-.05.12-.1.12-.17,0-.08-.05-.15-.15-.21-.1-.06-.27-.13-.51-.21-.15-.05-.28-.1-.39-.14s-.23-.1-.37-.17-.26-.16-.34-.24c-.09-.08-.16-.19-.22-.32-.06-.13-.09-.27-.09-.42,0-.36.14-.65.42-.87s.64-.33,1.08-.33.83.11,1.13.34c.3.23.44.53.44.9v.05h-.96v-.03c0-.1-.05-.2-.16-.28s-.25-.13-.44-.13c-.15,0-.27.03-.35.08-.08.05-.12.11-.12.19s.04.13.13.18.26.12.5.2c.11.04.19.07.25.09s.15.06.26.11.21.1.28.14c.07.04.15.1.24.18.09.07.16.15.21.22s.1.17.13.27c.04.11.06.22.06.33,0,.36-.14.65-.42.85-.28.2-.65.3-1.1.3-.48,0-.87-.1-1.17-.32-.31-.21-.46-.5-.46-.87v-.04h.96Z"/>
    </g>
  </g>
</svg>